<svg xmlns="http://www.w3.org/2000/svg" viewBox="0 0 1000 1000" width="1000" height="1000" preserveAspectRatio="xMidYMid meet" style="width: 100%; height: 100%; transform: translate3d(0px, 0px, 0px); content-visibility: visible;"><defs><clipPath id="__lottie_element_72"><rect width="1000" height="1000" x="0" y="0"></rect></clipPath></defs><g clip-path="url(#__lottie_element_72)"><g transform="matrix(1,0,0,1,563.2159423828125,154.78399658203125)" opacity="1" style="display: block;"><g opacity="1" transform="matrix(1,0,0,1,95.38400268554688,44.763999938964844)"><path fill="rgb(255,255,255)" fill-opacity="1" d=" M-95.13500213623047,44.513999938964844 C-95.13500213623047,44.513999938964844 95.13500213623047,44.513999938964844 95.13500213623047,44.513999938964844 C95.13500213623047,44.513999938964844 95.13500213623047,14.569999694824219 95.13500213623047,14.569999694824219 C95.13500213623047,14.569999694824219 95.13500213623047,11.467000007629395 95.13500213623047,11.467000007629395 C95.13500213623047,11.467000007629395 95.13500213623047,-32.21799850463867 95.13500213623047,-32.21799850463867 C95.13500213623047,-32.21799850463867 95.13500213623047,-33.60599899291992 95.13500213623047,-33.60599899291992 C95.13500213623047,-33.60599899291992 95.13500213623047,-44.513999938964844 95.13500213623047,-44.513999938964844 C95.13500213623047,-44.513999938964844 -95.13500213623047,-44.513999938964844 -95.13500213623047,-44.513999938964844 C-95.13500213623047,-44.513999938964844 -95.13500213623047,44.513999938964844 -95.13500213623047,44.513999938964844z"></path></g></g><g transform="matrix(1,0,0,1,246.06600952148438,154.78399658203125)" opacity="1" style="display: block;"><g opacity="1" transform="matrix(1,0,0,1,95.38400268554688,44.763999938964844)"><path fill="rgb(255,255,255)" fill-opacity="1" d=" M-95.13500213623047,44.513999938964844 C-95.13500213623047,44.513999938964844 95.13500213623047,44.513999938964844 95.13500213623047,44.513999938964844 C95.13500213623047,44.513999938964844 95.13500213623047,14.569999694824219 95.13500213623047,14.569999694824219 C95.13500213623047,14.569999694824219 95.13500213623047,11.467000007629395 95.13500213623047,11.467000007629395 C95.13500213623047,11.467000007629395 95.13500213623047,-32.21799850463867 95.13500213623047,-32.21799850463867 C95.13500213623047,-32.21799850463867 95.13500213623047,-33.60599899291992 95.13500213623047,-33.60599899291992 C95.13500213623047,-33.60599899291992 95.13500213623047,-44.513999938964844 95.13500213623047,-44.513999938964844 C95.13500213623047,-44.513999938964844 -95.13500213623047,-44.513999938964844 -95.13500213623047,-44.513999938964844 C-95.13500213623047,-44.513999938964844 -95.13500213623047,44.513999938964844 -95.13500213623047,44.513999938964844z"></path></g></g><g transform="matrix(1,0,0,1,145.88900756835938,755.6890258789062)" opacity="1" style="display: block;"><g opacity="1" transform="matrix(1.0012500286102295,0,0,1.0053600072860718,304.18701171875,45.25299835205078)"><path fill="rgb(255,255,255)" fill-opacity="1" d=" M-62.619998931884766,-44.513999938964844 C-62.619998931884766,-44.513999938964844 -202.98300170898438,-44.513999938964844 -202.98300170898438,-44.513999938964844 C-202.98300170898438,-44.513999938964844 -303.239990234375,-44.513999938964844 -303.239990234375,-44.513999938964844 C-303.239990234375,-44.513999938964844 -303.239990234375,-31.27400016784668 -303.239990234375,-31.27400016784668 C-303.239990234375,-31.27400016784668 -303.239990234375,-11.878000259399414 -303.239990234375,-11.878000259399414 C-303.239990234375,-11.878000259399414 -303.239990234375,15.972999572753906 -303.239990234375,15.972999572753906 C-303.239990234375,15.972999572753906 -303.239990234375,33.380001068115234 -303.239990234375,33.380001068115234 C-303.239990234375,33.380001068115234 -303.239990234375,44.513999938964844 -303.239990234375,44.513999938964844 C-303.239990234375,44.513999938964844 -90.91300201416016,44.513999938964844 -90.91300201416016,44.513999938964844 C-90.91300201416016,44.513999938964844 401.74200439453125,43.64400100708008 401.74200439453125,43.64400100708008 C401.74200439453125,43.64400100708008 359.4200134277344,-43.51900100708008 359.4200134277344,-43.51900100708008 C359.4200134277344,-43.51900100708008 -62.619998931884766,-44.513999938964844 -62.619998931884766,-44.513999938964844z"></path></g></g><g transform="matrix(1,0,0,1,752.3690185546875,594.510986328125)" opacity="1" style="display: block;"><g opacity="1" transform="matrix(1,0,0,1,50.3129997253418,125.35199737548828)"><path fill="rgb(255,255,255)" fill-opacity="1" d=" M50.0629997253418,-208.10299682617188 C50.0629997253418,-208.10299682617188 50.0629997253418,36.07500076293945 50.0629997253418,36.07500076293945 C50.0629997253418,36.07500076293945 50.0629997253418,125.10299682617188 50.0629997253418,125.10299682617188 C50.0629997253418,125.10299682617188 37.31800079345703,125.10299682617188 37.31800079345703,125.10299682617188 C37.31800079345703,125.10299682617188 3.818000078201294,125.10299682617188 3.818000078201294,125.10299682617188 C3.818000078201294,125.10299682617188 -0.18199999630451202,125.10299682617188 -0.18199999630451202,125.10299682617188 C-0.18199999630451202,125.10299682617188 -34.93199920654297,125.10299682617188 -34.93199920654297,125.10299682617188 C-34.93199920654297,125.10299682617188 -50.0629997253418,125.10299682617188 -50.0629997253418,125.10299682617188 C-50.0629997253418,125.10299682617188 -50.0629997253418,36.07500076293945 -50.0629997253418,36.07500076293945 C-50.0629997253418,36.07500076293945 -50.0629997253418,-72.81099700927734 -50.0629997253418,-72.81099700927734 C-50.0629997253418,-72.81099700927734 50.0629997253418,-208.10299682617188 50.0629997253418,-208.10299682617188z"></path></g></g><g transform="matrix(1,0,0,1,648.8489990234375,510.89801025390625)" opacity="1" style="display: block;"><g opacity="1" transform="matrix(1,0,0,1,102.072998046875,100.4010009765625)"><path fill="rgb(255,255,255)" fill-opacity="1" d=" M-43.24800109863281,-18.291000366210938 C-43.24800109863281,-18.291000366210938 -98.5469970703125,85.15499877929688 -98.5469970703125,85.15499877929688 C-98.5469970703125,85.15499877929688 -101.822998046875,100.1510009765625 -101.822998046875,100.1510009765625 C-101.822998046875,100.1510009765625 101.822998046875,-16.53700065612793 101.822998046875,-16.53700065612793 C101.822998046875,-16.53700065612793 101.822998046875,-36.542999267578125 101.822998046875,-36.542999267578125 C101.822998046875,-36.542999267578125 101.822998046875,-77.23200225830078 101.822998046875,-77.23200225830078 C101.822998046875,-77.23200225830078 101.822998046875,-78.30400085449219 101.822998046875,-78.30400085449219 C101.822998046875,-78.30400085449219 101.822998046875,-96.1989974975586 101.822998046875,-96.1989974975586 C101.822998046875,-96.1989974975586 101.822998046875,-97.24700164794922 101.822998046875,-97.24700164794922 C101.822998046875,-97.24700164794922 101.822998046875,-100.1510009765625 101.822998046875,-100.1510009765625 C101.822998046875,-100.1510009765625 -43.24800109863281,-18.291000366210938 -43.24800109863281,-18.291000366210938z"></path></g></g><g transform="matrix(1,0,0,1,627.3070068359375,288.29998779296875)" opacity="1" style="display: block;"><g opacity="1" transform="matrix(1,0,0,1,116.17900085449219,211.6999969482422)"><path fill="rgb(255,255,255)" fill-opacity="1" d=" M109.92900085449219,-211.4499969482422 C109.92900085449219,-211.4499969482422 107.71099853515625,-211.4499969482422 107.71099853515625,-211.4499969482422 C107.71099853515625,-211.4499969482422 89.33899688720703,-195.2550048828125 89.33899688720703,-195.2550048828125 C89.33899688720703,-195.2550048828125 -86.375,-12.472000122070312 -86.375,-12.472000122070312 C-86.375,-12.472000122070312 -194.4290008544922,211.4499969482422 -194.4290008544922,211.4499969482422 C-194.4290008544922,211.4499969482422 -183.1199951171875,211.4499969482422 -183.1199951171875,211.4499969482422 C-183.1199951171875,211.4499969482422 -181.8939971923828,211.4499969482422 -181.8939971923828,211.4499969482422 C-181.8939971923828,211.4499969482422 -137.8159942626953,211.4499969482422 -137.8159942626953,211.4499969482422 C-137.8159942626953,211.4499969482422 -134.70399475097656,211.4499969482422 -134.70399475097656,211.4499969482422 C-134.70399475097656,211.4499969482422 -100.63400268554688,211.4499969482422 -100.63400268554688,211.4499969482422 C-100.63400268554688,211.4499969482422 -94.3030014038086,211.4499969482422 -94.3030014038086,211.4499969482422 C-94.3030014038086,211.4499969482422 -17.472999572753906,57.86600112915039 -17.472999572753906,57.86600112915039 C-17.472999572753906,57.86600112915039 109.92900085449219,-211.4499969482422 109.92900085449219,-211.4499969482422z"></path></g></g><g transform="matrix(1,0,0,1,447.4329833984375,288.301025390625)" opacity="1" style="display: block;"><g opacity="1" transform="matrix(1,0,0,1,203.33799743652344,211.6999969482422)"><path fill="rgb(255,255,255)" fill-opacity="1" d=" M202.35899353027344,-209.89999389648438 C202.35899353027344,-209.89999389648438 203.08799743652344,-211.4499969482422 203.08799743652344,-211.4499969482422 C203.08799743652344,-211.4499969482422 173.45899963378906,-211.4499969482422 173.45899963378906,-211.4499969482422 C173.45899963378906,-211.4499969482422 172.00399780273438,-211.4499969482422 172.00399780273438,-211.4499969482422 C172.00399780273438,-211.4499969482422 124.96900177001953,-211.4499969482422 124.96900177001953,-211.4499969482422 C124.96900177001953,-211.4499969482422 123.89900207519531,-211.4499969482422 123.89900207519531,-211.4499969482422 C123.89900207519531,-211.4499969482422 108.22200012207031,-211.4499969482422 108.22200012207031,-211.4499969482422 C108.22200012207031,-211.4499969482422 107.7699966430664,-211.4499969482422 107.7699966430664,-211.4499969482422 C107.7699966430664,-211.4499969482422 102.96299743652344,-211.4499969482422 102.96299743652344,-211.4499969482422 C102.96299743652344,-211.4499969482422 -165.75799560546875,59.61600112915039 -165.75799560546875,59.61600112915039 C-165.75799560546875,59.61600112915039 -204.427001953125,193.58900451660156 -204.427001953125,193.58900451660156 C-204.427001953125,193.58900451660156 -203.08799743652344,211.4499969482422 -203.08799743652344,211.4499969482422 C-203.08799743652344,211.4499969482422 -3.8510000705718994,7.802999973297119 -3.8510000705718994,7.802999973297119 C-3.8510000705718994,7.802999973297119 202.35899353027344,-209.89999389648438 202.35899353027344,-209.89999389648438z"></path></g></g><g transform="matrix(1,0,0,1,347.3070068359375,288.29998779296875)" opacity="1" style="display: block;"><g opacity="1" transform="matrix(1,0,0,1,108.17900085449219,211.6999969482422)"><path fill="rgb(255,255,255)" fill-opacity="1" d=" M107.92900085449219,-211.4499969482422 C107.92900085449219,-211.4499969482422 107.71099853515625,-211.4499969482422 107.71099853515625,-211.4499969482422 C107.71099853515625,-211.4499969482422 89.33899688720703,-195.2550048828125 89.33899688720703,-195.2550048828125 C89.33899688720703,-195.2550048828125 -42.375,-12.472000122070312 -42.375,-12.472000122070312 C-42.375,-12.472000122070312 -107.92900085449219,211.4499969482422 -107.92900085449219,211.4499969482422 C-107.92900085449219,211.4499969482422 -96.62000274658203,211.4499969482422 -96.62000274658203,211.4499969482422 C-96.62000274658203,211.4499969482422 -95.39399719238281,211.4499969482422 -95.39399719238281,211.4499969482422 C-95.39399719238281,211.4499969482422 -51.316001892089844,211.4499969482422 -51.316001892089844,211.4499969482422 C-51.316001892089844,211.4499969482422 -48.20399856567383,211.4499969482422 -48.20399856567383,211.4499969482422 C-48.20399856567383,211.4499969482422 -14.133999824523926,211.4499969482422 -14.133999824523926,211.4499969482422 C-14.133999824523926,211.4499969482422 -7.802999973297119,211.4499969482422 -7.802999973297119,211.4499969482422 C-7.802999973297119,211.4499969482422 32.277000427246094,57.86600112915039 32.277000427246094,57.86600112915039 C32.277000427246094,57.86600112915039 107.92900085449219,-211.4499969482422 107.92900085449219,-211.4499969482422z"></path></g></g><g transform="matrix(1,0,0,1,246.14700317382812,288.29998779296875)" opacity="1" style="display: block;"><g opacity="1" transform="matrix(1,0,0,1,158.64999389648438,211.64700317382812)"><path fill="rgb(255,255,255)" fill-opacity="1" d=" M58.492000579833984,-211.39700317382812 C58.492000579833984,-211.39700317382812 -162.39999389648438,73.46299743652344 -162.39999389648438,73.46299743652344 C-162.39999389648438,73.46299743652344 -163.84500122070312,211.3040008544922 -163.84500122070312,211.3040008544922 C-163.84500122070312,211.3040008544922 -158.39999389648438,211.39700317382812 -158.39999389648438,211.39700317382812 C-158.39999389648438,211.39700317382812 7.314000129699707,-5.419000148773193 7.314000129699707,-5.419000148773193 C7.314000129699707,-5.419000148773193 158.39999389648438,-211.39700317382812 158.39999389648438,-211.39700317382812 C158.39999389648438,-211.39700317382812 142.14999389648438,-211.39700317382812 142.14999389648438,-211.39700317382812 C142.14999389648438,-211.39700317382812 140.22000122070312,-211.39700317382812 140.22000122070312,-211.39700317382812 C140.22000122070312,-211.39700317382812 106.24800109863281,-211.39700317382812 106.24800109863281,-211.39700317382812 C106.24800109863281,-211.39700317382812 104.60800170898438,-211.39700317382812 104.60800170898438,-211.39700317382812 C104.60800170898438,-211.39700317382812 74.86599731445312,-211.39700317382812 74.86599731445312,-211.39700317382812 C74.86599731445312,-211.39700317382812 58.492000579833984,-211.39700317382812 58.492000579833984,-211.39700317382812z"></path></g></g><g transform="matrix(1,0,0,1,145.88999938964844,288.301025390625)" opacity="1" style="display: block;"><g opacity="1" transform="matrix(1,0,0,1,50.37900161743164,211.6999969482422)"><path fill="rgb(255,255,255)" fill-opacity="1" d=" M50.04800033569336,69.01300048828125 C50.04800033569336,69.01300048828125 50.04800033569336,-211.4499969482422 50.04800033569336,-211.4499969482422 C50.04800033569336,-211.4499969482422 -50.12900161743164,-211.4499969482422 -50.12900161743164,-211.4499969482422 C-50.12900161743164,-211.4499969482422 -50.12900161743164,211.4499969482422 -50.12900161743164,211.4499969482422 C-50.12900161743164,211.4499969482422 -35.51900100708008,211.4499969482422 -35.51900100708008,211.4499969482422 C-35.51900100708008,211.4499969482422 -28.768999099731445,211.4499969482422 -28.768999099731445,211.4499969482422 C-28.768999099731445,211.4499969482422 -3.5190000534057617,211.4499969482422 -3.5190000534057617,211.4499969482422 C-3.5190000534057617,211.4499969482422 -0.26899999380111694,211.4499969482422 -0.26899999380111694,211.4499969482422 C-0.26899999380111694,211.4499969482422 25.981000900268555,211.4499969482422 25.981000900268555,211.4499969482422 C25.981000900268555,211.4499969482422 30.981000900268555,211.4499969482422 30.981000900268555,211.4499969482422 C30.981000900268555,211.4499969482422 50.04800033569336,211.4499969482422 50.04800033569336,211.4499969482422 C50.04800033569336,211.4499969482422 50.12900161743164,211.343994140625 50.12900161743164,211.343994140625 C50.12900161743164,211.343994140625 50.12900161743164,68.90899658203125 50.12900161743164,68.90899658203125 C50.12900161743164,68.90899658203125 50.04800033569336,69.01300048828125 50.04800033569336,69.01300048828125z"></path></g></g><g transform="matrix(1,0,0,1,500,500)" opacity="1" style="display: block;"></g></g></svg>
